<?xml version="1.0" standalone="no"?>
<!DOCTYPE svg PUBLIC "-//W3C//DTD SVG 20010904//EN"
 "http://www.w3.org/TR/2001/REC-SVG-20010904/DTD/svg10.dtd">
<svg version="1.0" xmlns="http://www.w3.org/2000/svg"
 width="700.000000pt" height="700.000000pt" viewBox="0 0 700.000000 700.000000"
 preserveAspectRatio="xMidYMid meet">
<metadata>
Created by potrace 1.14, written by Peter Selinger 2001-2017
</metadata>
<g transform="translate(0.000000,700.000000) scale(0.100000,-0.100000)"
fill="#000000" stroke="none">
<path d="M2186 6869 c-290 -9 -527 -26 -713 -49 -882 -112 -1190 -422 -1302
-1310 -47 -375 -61 -821 -61 -2015 0 -1197 13 -1627 60 -2013 108 -884 416
-1197 1291 -1311 379 -50 742 -61 2039 -61 1293 0 1642 11 2040 61 926 117
1228 477 1310 1559 24 318 30 651 30 1760 0 1157 -6 1491 -35 1823 -52 601
-166 931 -396 1153 -89 85 -143 123 -258 179 -277 138 -668 200 -1421 225
-334 11 -2250 11 -2584 -1z m1724 -1114 c41 -21 60 -53 60 -103 0 -75 -52
-122 -135 -122 -27 0 -44 -8 -66 -29 l-29 -29 0 -236 0 -236 23 -4 c356 -72
595 -187 788 -378 43 -42 98 -107 123 -145 l46 -68 0 -833 c0 -789 -1 -833
-17 -828 -10 3 -47 10 -83 16 -200 31 -426 -19 -599 -134 -81 -54 -212 -190
-260 -269 -86 -145 -116 -261 -116 -447 0 -178 15 -238 103 -423 2 -4 -308 -6
-690 -5 l-693 3 -67 33 c-80 39 -139 102 -168 178 -20 54 -20 73 -20 1179 l0
1124 98 77 c271 215 549 366 872 475 159 53 157 60 -7 28 -336 -64 -613 -205
-905 -460 -58 -49 -59 -43 -18 83 75 232 237 443 450 588 115 78 313 161 463
194 l27 6 0 241 0 241 -29 29 c-22 21 -39 29 -66 29 -47 0 -98 22 -119 51 -18
27 -21 100 -5 130 5 11 25 29 42 39 30 19 54 20 500 20 396 0 472 -2 497 -15z
m752 -3110 c148 -31 269 -96 378 -205 305 -301 305 -781 1 -1080 -151 -148
-326 -220 -536 -220 -234 0 -446 103 -596 290 -213 266 -213 674 0 940 150
186 357 288 591 289 52 0 125 -6 162 -14z"/>
<path d="M4289 2367 c-103 -29 -181 -96 -228 -197 -35 -75 -36 -201 -3 -273
48 -106 128 -174 241 -202 75 -20 143 -14 217 20 l52 23 143 -145 c79 -80 155
-149 168 -154 54 -22 114 38 92 92 -5 13 -75 89 -155 168 l-145 144 20 39 c84
165 9 378 -162 462 -67 32 -171 43 -240 23z m215 -121 c111 -65 155 -211 97
-324 -115 -224 -446 -163 -468 88 -11 120 58 222 177 261 48 16 146 3 194 -25z"/>
</g>
</svg>
